<svg xmlns="http://www.w3.org/2000/svg" width="20" height="20" viewBox="0 0 20 20">
    <path fill="#EE8208" fill-rule="evenodd" d="M10.136 10.123c-1.428 0-2.647-.495-3.658-1.485-1.01-.99-1.515-2.18-1.515-3.571 0-1.399.505-2.593 1.515-3.583C7.488.494 8.708 0 10.136 0c1.429 0 2.648.495 3.659 1.484 1.01.99 1.515 2.184 1.515 3.583 0 1.391-.505 2.582-1.515 3.571-1.01.99-2.23 1.485-3.659 1.485zm0-7.556c-.699 0-1.297.244-1.794.731a2.385 2.385 0 0 0-.747 1.769c0 .684.249 1.27.747 1.758a2.473 2.473 0 0 0 1.794.73c.7 0 1.298-.243 1.795-.73a2.372 2.372 0 0 0 .747-1.758c0-.692-.25-1.282-.747-1.769a2.473 2.473 0 0 0-1.795-.731zm5.96 8.17c.1.2.156.385.171.552.016.167-.001.318-.05.452-.05.134-.15.277-.303.43-.152.152-.313.29-.484.413-.171.122-.405.277-.701.463-.874.543-2.07.893-3.59 1.049l.832.804 3.043 2.98c.228.23.342.505.342.825 0 .32-.114.592-.342.815l-.137.145a1.183 1.183 0 0 1-.843.335c-.327 0-.608-.112-.843-.335a716.579 716.579 0 0 0-3.043-2.99l-3.043 2.99a1.183 1.183 0 0 1-.843.335c-.327 0-.604-.112-.832-.335l-.137-.145a1.08 1.08 0 0 1-.353-.815c0-.32.118-.595.353-.826l3.043-2.98.82-.803c-1.542-.156-2.746-.506-3.612-1.05-.296-.185-.53-.34-.701-.462a3.868 3.868 0 0 1-.484-.413 1.256 1.256 0 0 1-.302-.43 1.026 1.026 0 0 1-.052-.452c.016-.167.073-.351.171-.552.076-.15.183-.28.32-.391.136-.112.296-.193.478-.246.182-.052.395-.044.638.023s.49.197.74.39c.039.03.096.071.172.123.076.052.24.143.49.274.25.13.513.243.786.34.274.097.623.186 1.049.268.425.082.854.123 1.287.123.692 0 1.353-.095 1.983-.285.63-.19 1.087-.378 1.368-.564l.433-.279a2.17 2.17 0 0 1 .74-.39c.244-.067.456-.075.639-.023.182.053.342.134.478.246.137.112.244.242.32.39z"/>
</svg>
