<svg xmlns="http://www.w3.org/2000/svg" width="56" height="22" viewBox="0 0 56 22">
    <defs>
        <linearGradient id="a" x1=".008%" y1="50%" y2="50%">
            <stop offset="30%" stop-color="#00B4E6"/>
            <stop offset="100%" stop-color="#088CCB"/>
        </linearGradient>
    </defs>
    <g fill="none" fill-rule="nonzero">
        <path fill="#4DB45E" d="M15.3 3.161h4.969v16.377H15.3V9.82h-.414l-2.898 9.72h-3.45L5.64 9.811h-.414v9.726H.259V3.161h4.968s2.18-.007 2.76 2.146c.538 2.01 2.07 7.58 2.07 7.58h.414c.041-.15 1.538-5.6 2.07-7.573.58-2.153 2.753-2.146 2.76-2.146v-.007zm17.847 0h4.578v16.377h-4.848V9.812h-.404l-3.366 8.01c-.667 1.573-2.154 1.716-2.154 1.716h-4.579V3.161h4.848v9.726h.404l3.434-8.01c.666-1.58 2.087-1.716 2.087-1.716zm7.247 7.37h15.048c-.72 2.183-2.66 3.747-4.949 3.747h-5.251v5.26h-4.848v-9.007z"/>
        <path fill="url(#a)" d="M50.61 3.161H39.636a7.892 7.892 0 0 0 7.75 6.454h8.458c.076-.357.11-.721.11-1.099a5.349 5.349 0 0 0-5.346-5.355z"/>
    </g>
</svg>
