<svg xmlns="http://www.w3.org/2000/svg" width="35" height="22" viewBox="0 0 35 22">
    <g fill="none" fill-rule="nonzero">
        <path fill="#E2574C" d="M22 11.083c0 6.077-4.924 11-11 11s-11-4.924-11-11c0-6.075 4.925-11 11-11s11 4.925 11 11z"/>
        <path fill="#F4B459" d="M24 .083c-2.465 0-4.736.822-6.57 2.194h.008c.361.35.76.595 1.066.996l-2.288.036a11.31 11.31 0 0 0-.993 1.165h4.035c.306.369.59.69.848 1.096h-5.614a10.96 10.96 0 0 0-.562 1.097h6.815c.178.377.338.662.473 1.061h-7.692c-.122.38-.227.768-.306 1.164h8.32c.082.38.144.733.187 1.091h-8.672c-.036.362-.055.73-.055 1.1h8.79c0 .39-.028.75-.067 1.1h-8.668c.037.373.092.74.165 1.1h8.307a12.98 12.98 0 0 1-.31 1.087h-7.716c.116.376.258.741.413 1.098h6.83c-.188.4-.403.72-.64 1.095h-5.632c.222.385.467.753.734 1.105l4.052.06c-.346.415-.789.665-1.193 1.028.022.017-.645-.002-1.96-.023 2 2.063 4.795 3.35 7.896 3.35 6.075 0 10.999-4.925 10.999-11s-4.923-11-11-11z"/>
    </g>
</svg>
