<svg xmlns="http://www.w3.org/2000/svg" width="50" height="22" viewBox="0 0 50 22">
    <path fill="#1359AF" fill-rule="nonzero" d="M25.859 8.115C25.88 5.104 28.69 3 32.684 3c1.557 0 2.808.336 3.78.687l-.71 3.281c-1.809-.826-3.405-.768-3.983-.692-1.168.15-1.7.741-1.714 1.295-.04 1.825 5.678 2.051 5.662 6.135C35.704 16.924 32.927 19 28.684 19c-1.807-.016-3.55-.391-4.492-.821l.731-3.391c.939.434 2.119 1.009 4.149.977 1.163-.017 2.407-.476 2.419-1.514.006-.679-.523-1.165-2.096-1.924-1.532-.74-3.565-1.983-3.536-4.212zm17.43-4.832h3.45L50 18.759h-3.737l-.49-2.31h-5.18l-.845 2.31h-4.24L41.57 4.418a1.842 1.842 0 0 1 1.719-1.135zm.593 4.18l-2.128 5.812h3.351l-1.223-5.812zm-23.164-4.18h4.039l-3.34 15.476h-4.041l3.342-15.476zm-5.977 0h4.243l-6.546 15.476h-4.27L4.946 6.409c-.196-.76-.365-1.04-.96-1.36C3.015 4.525 1.411 4.036 0 3.732l.096-.45h6.875c.875 0 1.664.578 1.863 1.578l1.701 8.956 4.206-10.533z"/>
</svg>
