<svg xmlns="http://www.w3.org/2000/svg" width="42" height="42" viewBox="0 0 42 42">
    <g fill="none" fill-rule="evenodd">
        <circle cx="21" cy="21" r="21" fill="#4AD9BD"/>
        <path fill="#FFF" fill-rule="nonzero" d="M21.65 28.095l-.013.171-.012.126-.008.084a6.672 6.672 0 0 1-.32 1.423.248.248 0 0 1-.02.04 6.79 6.79 0 0 1-1.91 2.86l-.139.124-.166.064H13.73a.978.978 0 0 0-.129.008.248.248 0 0 1-.205-.426l1.015-.972.172-.07h4.004a5.323 5.323 0 0 0 1.279-1.993 5.654 5.654 0 0 0 .088-.256 5.06 5.06 0 0 0 .206-.98c.02-.195.032-.38.033-.558v-.03c0-.07 0-.07-.002-.138a5.156 5.156 0 0 0-.014-.272l-.013-.136a4.595 4.595 0 0 0-.058-.405 2.21 2.21 0 0 0-.054-.258 3.648 3.648 0 0 0-.102-.376 4.753 4.753 0 0 0-.069-.205l-.024-.066-.001-.004-.01-.025a5.38 5.38 0 0 0-5.184-3.441l-.013-.005c-.251.008-.49.03-.72.07l-.211-.062c-.377-.347-.618-.571-.855-.798a.248.248 0 0 1 .106-.419c.206-.057.411-.104.617-.142a.252.252 0 0 1 .084-.024l.19-.02a6.85 6.85 0 0 1 7.154 3.842l.033.073.021.049c.06.13.112.256.174.467l-.017-.088a5.904 5.904 0 0 1 .174.523 6.051 6.051 0 0 1 .205.997l.004.033c.009.067.012.098.016.136a6.675 6.675 0 0 1 .025 1.079zm-3.48 2.51a.249.249 0 0 1-.249.25h-.969a.249.249 0 0 1-.249-.25V30.3l-.002-.108-.001-.037-.001-.034v.013l.001.011c-.011-.077-.033-.353-.042-.41a1.033 1.033 0 0 0-.012-.083l-.001-.005a8.048 8.048 0 0 0-.038-.19l-.007-.034-.012-.046a5.98 5.98 0 0 0-.092-.318 4.454 4.454 0 0 0-.15-.395l-.026-.061-.012-.027-.06-.128-.027-.055-.038-.073a2.257 2.257 0 0 0-.046-.088l-.017-.032a4.68 4.68 0 0 0-.129-.227 8.74 8.74 0 0 0-.532-.786c-.638-.836-1.35-1.554-2.777-2.864l-.2-.184-.049-.044-.104-.095a28.986 28.986 0 0 1-.207-.19c-1.182-1.088-1.841-1.757-2.366-2.453-.023-.026-.023-.026-.025-.03a17.923 17.923 0 0 1-.933-1.353l-.22-.355a.255.255 0 0 1-.031-.07c-.116-.201-.223-.4-.326-.605a.249.249 0 0 1 .288-.351c.057.015.115.032.175.05.187.059.302.1.697.249.182.07.355.133.529.194l.129.104c.25.404.538.823.867 1.257.108.143.22.282.335.415.228.264.487.539.781.831.211.211.44.43.737.708a128.183 128.183 0 0 0 .895.824l.09.082c1.57 1.445 2.407 2.311 3.128 3.343a9.153 9.153 0 0 1 .375.58l.014.024.036.062.05.086c.033.057.065.117.098.18a4.93 4.93 0 0 1 .16.32l.014.03.019.041c.05.11.095.215.134.315l.023.06.03.08.017.048.004.01.013.037.034.1.024.076.006.02c.02.061.039.124.062.211l.01.035.003.016.01.04c.01.037.017.062.03.121l.004.02.018.082c.013.058.024.118.034.176l.022.137.008.064.003.023c.003.024.003.024 0 .017.007.029.007.029.008.047l.006.05.002.025.009.08.01.154c.003.05.005.1.006.151l.002.438zm8.048-12.825c.096.08.118.218.052.324-.171.27-.327.548-.468.833a.25.25 0 0 1-.385.078 15.547 15.547 0 0 0-.437-.353l-.165-.127a14.982 14.982 0 0 0-6.516-2.852.25.25 0 0 1-.042-.01 9.003 9.003 0 0 0-.308-.05.249.249 0 0 1-.212-.221 1.998 1.998 0 0 0-.391-.903 2.034 2.034 0 0 0-1.617-.795 2.03 2.03 0 0 0-2.008 1.695v.006a.249.249 0 0 1-.212.211c-.333.047-.658.105-.975.174-.647.138-1.283.318-1.99.555l.081-.014a15.428 15.428 0 0 0-.996.396l.157.056c.103.036.195.07.354.131l.187.07c.878.327 1.434.454 2.276.454.793 0 1.46-.137 1.962-.397-.197-.28-.32-.61-.36-.964-.008-.039-.008-.039-.01-.065a2.68 2.68 0 0 1-.014-.383l.008-.086.001-.008c.004-.036.004-.036.023-.127l-.009.038a1.461 1.461 0 0 1 1.442-1.211 1.457 1.457 0 0 1 1.461 1.42c.004.053.005.11.005.181 0 .582-.29 1.134-.757 1.637a3.709 3.709 0 0 1-.232.236l-.006.01-.094.082-.073.063-.076.063h-.001l-.014.012-.023.018-.043.033-.017.012-.006.005c-.026.02-.026.02-.053.038a1.25 1.25 0 0 1-.139.092 3.011 3.011 0 0 1-.303.18l-.053.028-.029.015c-.05.026-.078.039-.1.048a1.267 1.267 0 0 1-.229.09c-.071.04-.071.04-.076.038a3.277 3.277 0 0 1-.189.067c-.152.052-.31.096-.472.132a6.711 6.711 0 0 1-1.524.163c-.913 0-1.64-.142-2.462-.427-.153-.054-.279-.1-.52-.192-.167-.063-.246-.093-.243-.107-.053-.005-.053-.005-.08-.013l-.022-.009-.028-.012a19.12 19.12 0 0 1-1.111-.483 28.113 28.113 0 0 1-.439-.211 7.517 7.517 0 0 1-.621-.339c.042.03.062.044.074.05-.014-.007-.034-.021-.078-.052a.248.248 0 0 1-.008-.343l.014-.015.201-.208.134-.135c.138-.134.24-.227.333-.294l.005-.004a5.902 5.902 0 0 1 .526-.34l.043-.025.033-.018c.072-.042.145-.082.23-.124.149-.078.293-.145.406-.188.034-.017.034-.017.056-.025l.007-.003a16.31 16.31 0 0 1 3.483-1.085 3.506 3.506 0 0 1 3.193-2.05c1.398 0 2.645.825 3.2 2.067a16.51 16.51 0 0 1 7.289 3.467zm-10.814-2.136l-.005.083a1.392 1.392 0 0 0 .046.362c.04.138.106.252.196.347.145-.197.232-.383.253-.54a.436.436 0 0 0 .004-.06c0-.042-.001-.083-.003-.12v-.029c0-.01-.003-.02-.003-.029a.244.244 0 0 0-.246-.217.247.247 0 0 0-.236.17l-.006.033zm4.962-5.282c.13-.066.237-.15.326-.255a.25.25 0 0 1 .35-.029l.666.56a.248.248 0 0 1 .03.35c-.14.163-.3.306-.51.445l-1.812 1.735a.25.25 0 0 1-.368-.025 4.043 4.043 0 0 0-.571-.585.248.248 0 0 1-.013-.37l.429-.41a2.453 2.453 0 0 1-1.033-.686 2.5 2.5 0 0 1-1.366-.263v.543a.249.249 0 0 1-.274.247 4.383 4.383 0 0 0-.823.006.249.249 0 0 1-.274-.248l.002-2.71v-.178l.001-.022.002-.028a.249.249 0 0 1 .258-.217l.435.02h.425c.138 0 .25.111.25.248v.032a1.083 1.083 0 0 0 .07.433.248.248 0 0 1 .03.06l.014.04.012.022.005.01.011.021a.25.25 0 0 1 .024.056 1.084 1.084 0 0 0 .582.507 2.463 2.463 0 0 1 .167-1.114v-.002a2.45 2.45 0 0 1 1.567-1.441l.333-.103a.25.25 0 0 1 .29.113l.174.301c.375.65.432 1.424.15 2.13a2.418 2.418 0 0 1-.638.915l.015.005c.26.103.548.102.806 0a.249.249 0 0 1 .076-.036l.012-.005.014-.005a.236.236 0 0 1 .072-.027.798.798 0 0 0 .084-.04zm-1.977-.606a1.31 1.31 0 0 0 .494-.612l.003-.01c.102-.253.12-.525.062-.784-.22.15-.393.362-.494.615l-.004.01a1.313 1.313 0 0 0-.06.78zM32.987 22.98a9.71 9.71 0 0 1-.05.566 8.466 8.466 0 0 1-.073.484l-.007.034-.013.069-.021.103a6.85 6.85 0 0 1-.105.446 6.598 6.598 0 0 1-.154.518l-.008.024-.036.103a8.157 8.157 0 0 1-.882 1.787c-.02.04-.02.04-.03.053l-.001.002-.034.042.029-.035-.621.94a.25.25 0 0 1-.45-.08l-.257-1.097-.032-.132-.016-.068-.016-.064-.065-.24-.003-.017-.003-.01a14.13 14.13 0 0 0-.242-.798l-.068-.243.014.08-.114-.314-.032-.083-.031-.08-.047-.12-.037-.092a9.472 9.472 0 0 0-.097-.23 13.458 13.458 0 0 0-.407-.876l-.069-.135-.023-.044a14.658 14.658 0 0 0-.72-1.224c-.148-.232-.277-.421-.406-.598l-.039-.212c.107-.386.245-.757.414-1.115a.25.25 0 0 1 .421-.048c.125.158.249.322.373.493a.25.25 0 0 1 .037.043l.124.183.022.032.125.184a16.46 16.46 0 0 1 .418.648l.014.024.058.096c.037.06.075.124.116.196l.106.184c.085.152.158.286.225.414v.004c.043.079.083.157.14.272l.025.048.02.04a7.968 7.968 0 0 1 .19.4c.031.065.058.124.08.178l.026.056.023.055c.04.086.075.17.106.244l.007.015.002.005-.003-.006.026.112-.02-.096a12.056 12.056 0 0 1 .263.674 6.977 6.977 0 0 0 .322-1.412l.005-.039.007-.065a7.027 7.027 0 0 0-.048-1.849l-.013-.077-.012-.072-.007-.037-.007-.035-.013-.068a6.713 6.713 0 0 0-.197-.751 7.012 7.012 0 0 0-1.723-2.819 8.056 8.056 0 0 0-1.759 2.33 7.972 7.972 0 0 0-.56 1.478c-.028.108-.04.155-.051.207l-.005.024c-.018.07-.033.138-.047.212-.01.044-.016.077-.03.159l-.012.06a7.884 7.884 0 0 0-.075.553l-.005.06-.006.062a5.473 5.473 0 0 0-.024.414l-.003.087-.001.062-.002.118.001.112.003.11c.003.129.01.259.021.398a9.642 9.642 0 0 0 2.545 6.151 9.927 9.927 0 0 0 1.75 1.505l1.31.879c.203.137.106.454-.14.454H21.22a.94.94 0 0 0-.142.01c-.24.038-.386-.256-.21-.424l1.017-.975.173-.07h6.705a11.09 11.09 0 0 1-3.308-7.427l-.01-.155-.007-.113-.002-.04a6.233 6.233 0 0 1-.005-.187 6.247 6.247 0 0 1 0-.495 6.26 6.26 0 0 1 .008-.195l.006-.094v-.026l.002-.031c.007-.095.01-.141.015-.188a8.767 8.767 0 0 1 .153-1.065c.015-.08.033-.164.056-.265l.01-.037c.016-.068.024-.102.033-.129.012-.051.022-.09.046-.177.012-.044.022-.08.045-.156l.01-.035.002-.005.008-.027a2.51 2.51 0 0 1 .046-.148l.003-.007.003-.012.013-.038a9.3 9.3 0 0 1 .51-1.241 9.41 9.41 0 0 1 2.62-3.21l.023-.022.31-.241a.25.25 0 0 1 .313.005l.303.254a8.517 8.517 0 0 1 2.83 4.658l.023.108.024.114.014.076.016.093.01.058c.012.07.023.141.035.228l.005.038.01.075.014.12.005.044.018.189.005.073.003.038.007.119.008.183.003.093.002.142c-.006.289-.01.46-.013.512z"/>
    </g>
</svg>
